PathFileType	4	(X/Y/Z)	0_coords_data.trc
DataRate	CameraRate	NumFrames	NumMarkers	Units	OrigDataRate	OrigDataStartFrame	OrigNumFrames
30.0	30.0	5	21	m	30.0	28	65
Frame#	Time	THUMB_TIP	THUMB_IP	THUMB_MCP	THUMB_CMC	INDEX_TIP	INDEX_DIP	INDEX_PIP	INDEX_MCP	MIDDLE_TIP	MIDDLE_DIP	MIDDLE_PIP	MIDDLE_MCP	RING_TIP	RING_DIP	RING_PIP	RING_MCP	PINKY_TIP	PINKY_DIP	PINKY_PIP	PINKY_MCP	WRIST
X1	Y1	Z1	X2	Y2	Z2	X3	Y3	Z3	X4	Y4	Z4	X5	Y5	Z5	X6	Y6	Z6	X7	Y7	Z7	X8	Y8	Z8	X9	Y9	Z9	X10	Y10	Z10	X11	Y11	Z11	X12	Y12	Z12	X13	Y13	Z13	X14	Y14	Z14	X15	Y15	Z15	X16	Y16	Z16	X17	Y17	Z17	X18	Y18	Z18	X19	Y19	Z19	X20	Y20	Z20	X21	Y21	Z21
26	0.8999999999999961	0.5332701650651785	-0.011775069231214741	-0.10497107467342288	0.5139489679643857	-0.012883589231795223	-0.11735907394693879	0.48298120786860765	-0.015592568827027864	-0.11893364188861397	0.47732228603331117	-0.0266727247238413	-0.0760956126509808	0.49698134401027405	-0.004843350544846303	-0.10971777527064122	0.513312555574064	-0.004515760884694742	-0.11753980914127185	0.5284345591787118	0.014905012404929141	-0.1226553154518974	0.4943445664234434	0.03397881771045441	-0.10569363985328187	0.4976669004945856	-0.01725728605062271	-0.09775307410024259	0.5151913860701501	-0.013254959619323325	-0.09996073993753574	0.5374866192823775	0.005111138549334537	-0.10383611915402746	0.5085480169458567	0.03448940824029445	-0.08664244340467273	0.5099022392735498	-0.004141961457172161	-0.09406250568018325	0.5173334558808554	-0.01568398450499997	-0.08237667136256949	0.5405606300447986	-0.008215954906924838	-0.08736735200554108	0.5239989580456249	0.024557263078993086	-0.07044553066623788	0.5035777179162447	-0.021239432074304343	-0.06301684933283805	0.5181112843202177	-0.027077922118047493	-0.06992246165836138	0.5382790064286181	-0.021423935511003522	-0.07137416390252424	0.5292491036125467	0.008157301749920798	-0.052818983810560355	0.4622830810018608	-0.023011742144276925	-0.051989820119430985
27	0.9333333333333294	0.533251821936879	-0.011333846529415714	-0.10503115707464464	0.5139048595525632	-0.012518755992101616	-0.11737178250713814	0.4829527591812768	-0.015422887291061116	-0.11890589593326481	0.4773661033432498	-0.02658924194279144	-0.07608076545664835	0.49662683092492577	-0.004538777766008306	-0.10953191507209133	0.5129225885790756	-0.004288159705086669	-0.11743036258187177	0.5281410868949538	0.015029288575500122	-0.12264987730418718	0.4941516326773089	0.034189607416241885	-0.10558426047068996	0.497378104106189	-0.016831898965474545	-0.09762666880770102	0.5149164778620603	-0.012921247388061108	-0.09988769738767103	0.5372732816533589	0.005336031936022723	-0.1039193999957212	0.5083805818060961	0.03466755844042935	-0.08656943257623373	0.5070982198394363	-0.004039404985878403	-0.09217935914398902	0.5170535912624591	-0.015394827343908402	-0.08233329582404175	0.540281434667691	-0.00807832541668696	-0.08754060504195807	0.5238829969849782	0.024698694916641006	-0.07046784856753954	0.5036679649219782	-0.02084587224665635	-0.06302982764085518	0.5180948131165591	-0.026797895543319017	-0.07006114827402937	0.5382641219670117	-0.021201660996782223	-0.071702232792025	0.5292102683417667	0.0082373472319891	-0.052933749101567285	0.4622830810018609	-0.023011742144276925	-0.051989820119430985
28	0.9666666666666625	0.5332672487966307	-0.010815541815702212	-0.10539177479576312	0.5138086175730765	-0.012100594718536861	-0.11754538783644539	0.4828676811739767	-0.015214369273808925	-0.11888062667867769	0.47744276003189623	-0.026450213225898245	-0.07605287818209541	0.4965922504236918	-0.004182286574163974	-0.10938389150547445	0.5128526733633886	-0.00391806997457067	-0.11735438931995776	0.5279140192059282	0.015485152468801666	-0.12270982144299163	0.4939515150960744	0.03447291466444624	-0.10539944029785761	0.49748404330839247	-0.016107455770147494	-0.09725580474193093	0.5150450720848114	-0.012536067199383383	-0.09987409654965536	0.5372149875026677	0.005914897415744247	-0.10405336743539716	0.5082021744497941	0.034927765744286465	-0.08637122754482726	0.506629971207107	-0.0028910825322876477	-0.0905845316897986	0.5171605065715099	-0.01502428883786	-0.08240570966670285	0.5403024970169107	-0.007483020785116423	-0.0876742515315507	0.5236837389481968	0.02502097317432206	-0.07029529612743218	0.5039598697803582	-0.020507407792022314	-0.06305492733571172	0.5183314672582423	-0.02632359019692343	-0.0703095264401827	0.5384586909798794	-0.020596139121959234	-0.07201340097871453	0.5290844182187956	0.008506990879843412	-0.05288190116037875	0.4622830810018609	-0.023011742144276925	-0.051989820119430985
29	0.9999999999999956	0.5335131477193431	-0.01039966115300206	-0.10619620602622395	0.5137871682113586	-0.011812288015822014	-0.11789621533378504	0.48284878570657086	-0.01507978739688609	-0.11887597845933459	0.47750022874244025	-0.02630768615332091	-0.07603654302985324	0.4970486180762246	-0.003925710480440214	-0.10927296216254798	0.5132119747866939	-0.0033938718623475195	-0.1174254493618285	0.5278091093930308	0.016312150302327577	-0.12295773503140633	0.4937812863449613	0.034756361187224805	-0.1051938830436554	0.49814162797650596	-0.015213285795933396	-0.0967783679889834	0.5156712403177751	-0.012086490425444962	-0.10008530643351382	0.5373938218358716	0.006870291360253522	-0.10434904030408615	0.5080449448734702	0.03519936525591438	-0.08612117936924243	0.5036580934207453	-0.004206990709667235	-0.08669753532780006	0.5178383314480036	-0.014603884869408224	-0.08271941500264146	0.5407821960135072	-0.006377295414988993	-0.08782649672788079	0.5234239113069963	0.02547381031410567	-0.0699682255382684	0.5045356388036341	-0.02008109093425714	-0.0633252227182822	0.5189706283612298	-0.02566104920829515	-0.07063926005289417	0.5389875430918426	-0.019528796910035173	-0.07223005401122412	0.5288571088995264	0.008990719452178775	-0.05261131448645914	0.4622830810018609	-0.023011742144276925	-0.051989820119430985
30	1.0333333333333288	0.5338989809607194	-0.00994085786172716	-0.10745082420621377	0.5137752028614235	-0.011544893534732203	-0.11842627975803624	0.4828356018655766	-0.014912063928802843	-0.11889877711789655	0.47754861620171074	-0.026079929063433704	-0.0760360127305548	0.49826074998074854	-0.0039052988933608868	-0.1095518332041057	0.5143089796887925	-0.002669433150709666	-0.1178540593576139	0.5279673168139621	0.017695545950908387	-0.12339727919502586	0.4936960731041923	0.035005748986457474	-0.1049724367410554	0.4995555834415891	-0.014435356329060567	-0.09668477239651388	0.516979566617096	-0.011550691564682025	-0.10069519874502088	0.5379091470037969	0.008313212879470955	-0.10479245576285487	0.507939591242755	0.035467475385716596	-0.08580246692063315	0.5027073404844893	-0.006923755429887102	-0.08356531837018061	0.5192277761923026	-0.014137099471900894	-0.08335826341238642	0.5417780272970663	-0.004646047369618711	-0.08800434607457377	0.5230985681312377	0.026057470503876745	-0.06948158630546547	0.5052594984622473	-0.01974614776491057	-0.064031639735107	0.5199632547866967	-0.024815614005851416	-0.07118007047081193	0.5397700993150932	-0.01794816241351871	-0.07233723833024239	0.5284941136137934	0.009740582255751695	-0.052161286900284154	0.4622830810018609	-0.023011742144276925	-0.051989820119430985
